<?xml version="1.0" encoding="UTF-8" standalone="no"?>

<svg width="118.67501mm" height="121.1125mm" viewBox="0 0 118.67501 121.1125" version="1.1" id="svg1" xmlns="http://www.w3.org/2000/svg">
<defs id="defs1" />
<g id="layer1" transform="translate(-44.708382,-77.212865)">
<path id="path1" style="fill:#ff7a00;fill-opacity:1" d="m 99.012561,77.224744 c -2.348803,0 -4.296176,0.476398 -6.591846,1.611788 l -1.705322,0.843359 -0.890902,-0.543119 c -3.803028,-2.31663 -9.022743,-2.562631 -13.171805,-0.621151 -3.75509,1.75712 -6.413164,4.844393 -7.669817,8.907983 -0.355345,1.14906 -0.430965,1.809619 -0.433565,3.801319 -0.0038,2.86726 0.260068,4.012774 1.51567,6.582544 0.736631,1.50762 1.116276,2.017501 2.632914,3.534153 1.50979,1.50979 2.032824,1.90043 3.533635,2.63911 0.968874,0.47687 2.366867,1.0026 3.10627,1.16841 l 1.344104,0.30127 v 4.24367 4.24367 l -0.837675,1.34565 c -1.466999,2.35566 -2.671525,5.93502 -3.260783,9.68985 -0.128041,0.81589 -0.233545,2.94363 -0.234094,4.72839 -0.0011,3.50298 0.191668,4.60467 1.283126,7.33289 2.005553,5.01309 6.73509,10.24837 13.115478,14.51798 2.449643,1.63924 5.178273,3.23688 6.848678,4.0106 l 1.326017,0.61444 1.342036,-0.61133 c 0.73801,-0.33633 2.24531,-1.1307 3.34967,-1.76527 7.9394,-4.56196 13.39878,-9.74491 16.10806,-15.29158 1.2646,-2.58901 1.74849,-4.42268 1.88412,-7.14426 0.22346,-4.48411 -0.84423,-9.62809 -2.91558,-14.04824 l -0.73743,-1.57406 v -5.22397 -5.22398 l 0.97359,-0.23771 c 1.53531,-0.37534 4.19843,-1.75001 5.52938,-2.85409 2.26107,-1.87567 4.15382,-4.98054 4.73459,-7.76593 1.57701,-7.56341 -2.99232,-14.97248 -10.38645,-16.84135 -3.42065,-0.86458 -7.84537,-0.212459 -10.67376,1.573031 -0.4068,0.2568 -0.82356,0.466638 -0.92604,0.466638 -0.10248,0 -0.58374,-0.243946 -1.06971,-0.542086 -2.01395,-1.23554 -4.42688,-1.868619 -7.122559,-1.868619 z m -16.867187,4.120678 c 0.808727,-0.02378 1.641464,0.0537 2.492871,0.234095 1.799336,0.38125 2.97495,0.973344 4.704105,2.369364 l 1.509469,1.21853 1.173055,-1.022676 c 2.369208,-2.0641 4.060926,-2.731153 6.922058,-2.730583 2.794138,5.5e-4 4.566438,0.684138 6.927738,2.672188 l 1.36478,1.148767 0.76791,-0.728121 c 2.27911,-2.16305 3.88889,-2.914551 6.7014,-3.128491 5.95951,-0.45331 11.06527,4.680292 10.604,10.661882 -0.40407,5.23989 -4.69558,9.290393 -9.84332,9.290393 -2.63141,0 -4.7969,-0.85153 -7.0652,-2.778129 l -1.29812,-1.102259 -0.74207,0.703317 c -1.71855,1.62911 -3.03951,2.413071 -4.85913,2.884581 -2.200821,0.57028 -4.988377,0.25752 -7.041952,-0.79014 -0.421315,-0.21494 -1.391318,-0.893741 -2.155424,-1.508431 -0.764106,-0.61469 -1.440114,-1.117244 -1.502234,-1.117244 -0.06212,0 -0.717155,0.508464 -1.455725,1.130164 -1.559474,1.312691 -2.357853,1.755201 -4.026628,2.232421 -1.450061,0.41473 -3.74302,0.43841 -5.174361,0.0532 -2.401129,-0.64581 -4.989926,-2.597168 -6.19032,-4.665868 -2.247205,-3.87271 -1.546327,-8.87577 1.698088,-12.12019 1.852477,-1.852478 4.062827,-2.835463 6.48901,-2.9068 z m 25.013976,21.603328 1.08779,0.66043 c 1.39444,0.84708 3.72931,1.63416 5.2095,1.75596 l 1.1591,0.0956 v 4.51755 4.51755 H 99.317969 84.019678 v -4.51083 -4.51084 l 1.251603,-0.23047 c 1.442107,-0.2653 3.559881,-1.07266 4.696354,-1.79008 l 0.784448,-0.49506 0.667143,0.40256 c 4.692172,2.83189 10.364054,2.82922 15.064714,-0.005 z m -23.830586,14.8854 h 15.640389 15.640387 l 0.47646,0.94 c 1.61956,3.19604 2.73136,9.46738 2.31924,13.08085 -0.42232,3.70284 -2.23004,7.06984 -5.74952,10.70839 -2.82409,2.91963 -6.06774,5.37182 -10.42211,7.87962 -1.08795,0.62658 -2.089299,1.13837 -2.225183,1.13637 -0.135885,-0.002 -1.202094,-0.55272 -2.369365,-1.22473 -9.088761,-5.23254 -14.702616,-11.28846 -15.877583,-17.12816 -0.740794,-3.68181 0.181907,-9.98449 2.097029,-14.32625 z m 21.650356,7.80624 c -2.23471,0.0369 -3.9174,2.37554 -2.77141,4.74287 0.43018,0.88862 1.06671,1.42005 2.03089,1.69602 0.71905,0.2058 1.70611,0.10193 2.40347,-0.2527 2.29208,-1.16559 2.25815,-4.69598 -0.0558,-5.81618 -0.54656,-0.26459 -1.09144,-0.37852 -1.60714,-0.37001 z m -12.304673,0.0145 c -2.251902,0.0999 -3.759891,2.54932 -2.721281,4.69481 0.438513,0.90584 1.207676,1.52093 2.174027,1.73839 2.094712,0.47139 3.972763,-0.98878 4.000273,-3.1104 0.0229,-1.76608 -1.219802,-3.14047 -2.993616,-3.31091 -0.156206,-0.015 -0.309277,-0.0185 -0.459403,-0.0119 z m 0.987536,14.80168 v 1.57613 1.57614 h 5.655986 5.655471 v -1.57614 -1.57613 h -5.655471 z m -2.738851,35.04024 c -0.769416,0.002 -1.551074,0.0994 -2.322339,0.29921 -1.593521,0.41292 -2.465027,0.90386 -3.549137,1.99936 -1.184155,1.19661 -2.035591,2.79614 -2.546098,4.78472 -0.568873,2.21594 -0.568873,6.62435 0,8.84029 0.922647,3.59399 2.901224,5.76708 6.013587,6.60528 2.880298,0.7757 6.062524,0.0177 8.190714,-1.95079 0.702839,-0.65011 2.099376,-2.69989 1.938383,-2.8453 -0.03966,-0.0358 -0.535465,-0.35928 -1.101741,-0.71882 l -1.029395,-0.65371 -0.431498,0.81236 c -1.073784,2.02411 -2.912247,3.1268 -5.20485,3.1228 -2.914042,-0.005 -4.931868,-1.69082 -5.644617,-4.71495 -0.369857,-1.56926 -0.382829,-6.29432 -0.0217,-7.99797 0.479051,-2.26015 1.496963,-3.70934 3.185852,-4.53564 1.178813,-0.57674 2.913361,-0.6843 4.383195,-0.27181 1.052627,0.29541 2.360207,1.38863 3.031856,2.53472 0.263046,0.44885 0.537452,0.81598 0.609782,0.81598 0.107259,0 1.815064,-1.01908 2.024683,-1.2082 0.154777,-0.13964 -0.829941,-1.71878 -1.555461,-2.49442 -1.466242,-1.5675 -3.662962,-2.42805 -5.971212,-2.42311 z m -46.21475,0.35657 v 11.04377 11.04325 h 1.39113 1.390613 v -4.72839 -4.72839 h 2.458764 2.458248 l 2.36213,4.72839 2.362129,4.72839 h 1.588017 1.588534 l -2.262394,-4.40386 c -1.244068,-2.42219 -2.333995,-4.48319 -2.422075,-4.58009 -0.361255,-0.39737 -0.124533,-0.76479 0.714685,-1.11 1.212759,-0.49887 2.330035,-1.67453 2.809648,-2.95641 0.497287,-1.32911 0.547773,-4.05054 0.09974,-5.36557 -0.403272,-1.18353 -1.693891,-2.5709 -2.898014,-3.11505 -0.947451,-0.4282 -1.150196,-0.4442 -6.309692,-0.4992 z m 102.172058,0.007 v 11.04016 l -5.2e-4,11.04015 h 1.29605 1.29656 l 0.0481,-9.13226 0.0481,-9.13226 1.35082,2.50321 c 0.74311,1.37682 3.12392,5.46573 5.29063,9.08626 l 3.93981,6.58255 1.61644,0.0527 1.61696,0.0532 V 186.91366 175.8735 h -1.39113 -1.39061 l -0.001,9.03976 -0.001,9.03976 -1.36788,-2.50372 c -0.75253,-1.37683 -3.12008,-5.42371 -5.26117,-8.99325 l -3.89331,-6.49005 -1.59835,-0.0532 z m -36.34403,0.0119 -4.45038,5.2e-4 -4.45037,5.1e-4 v 1.10536 1.10484 l 1.48776,0.0548 1.48725,0.0543 0.0424,8.66872 0.0424,8.66924 h -1.53014 -1.52962 v 1.2051 1.20509 h 4.45916 4.45916 l -0.0553,-1.15859 -0.0553,-1.1591 -1.53169,-0.0543 -1.53169,-0.0548 0.0486,-8.66097 0.0481,-8.66148 1.52963,-0.0543 1.53014,-0.0548 v -1.10484 z m 27.25828,0.001 -4.45037,5.2e-4 v 1.11259 1.1126 h 1.48363 1.48311 v 8.71523 8.71523 h -1.48311 -1.48363 v 1.20509 1.20561 h 4.45915 4.45916 l -0.0553,-1.1591 -0.0553,-1.1591 -1.53169,-0.0548 -1.53169,-0.0527 0.0486,-8.66149 0.0481,-8.66148 1.52963,-0.0548 1.53013,-0.0532 v -1.10536 -1.10484 z m -73.059623,5.2e-4 v 11.03292 11.03292 h 6.768062 6.768062 v -1.2051 -1.20509 h -5.377449 -5.37745 v -3.80132 -3.80132 h 5.099431 5.09943 v -1.20561 -1.2051 h -5.09943 -5.099431 v -3.6158 -3.61631 h 5.37745 5.377449 v -1.2051 -1.20509 h -6.768062 z m 50.437233,0 v 11.03292 11.03292 h 1.38751 1.38751 l 0.0496,-4.68189 0.0491,-4.6824 4.07986,-0.10077 c 4.57294,-0.11319 4.88533,-0.18718 6.29574,-1.48725 1.27506,-1.17531 1.66625,-2.27663 1.67225,-4.71651 0.004,-1.35408 -0.0839,-2.25787 -0.25993,-2.68872 -0.44079,-1.07872 -1.29597,-2.21003 -2.04587,-2.70629 -1.31806,-0.87225 -2.27863,-0.99794 -7.65587,-0.99994 z m -67.682175,2.37608 3.569291,0.0672 c 3.954474,0.0736 4.473169,0.20524 5.137154,1.29708 0.445552,0.73266 0.638362,2.74594 0.38654,4.03903 -0.217419,1.11643 -0.713603,1.77798 -1.623674,2.16576 -0.433625,0.18474 -1.535538,0.25373 -4.032829,0.25373 h -3.436482 v -3.91036 z m 70.463395,0.0341 h 3.16312 c 3.701,0 4.53471,0.16156 5.39037,1.04438 0.61403,0.63352 0.62078,0.65847 0.68058,2.62568 0.0708,2.32912 -0.18469,3.01696 -1.37253,3.69796 -0.67833,0.38891 -0.94055,0.41403 -4.29225,0.41703 l -3.56929,0.003 v -3.89382 z" />
</g>
</svg>